<svg width="34" height="26" viewBox="0 0 34 26" fill="none" xmlns="http://www.w3.org/2000/svg">
<mask id="mask0_12:1180" style="mask-type:alpha" maskUnits="userSpaceOnUse" x="0" y="0" width="34" height="26">
<path d="M29.8494 0H4.15766C1.86427 0 0 1.8733 0 4.17781V21.8222C0 24.1267 1.86427 26 4.15766 26H29.8423C32.1357 26 34 24.1267 34 21.8222V4.18488C34.007 1.88037 32.1427 0 29.8494 0ZM32.1076 21.8222C32.1076 23.0734 31.0945 24.0914 29.8494 24.0914H4.15766C2.91247 24.0914 1.89944 23.0734 1.89944 21.8222V4.18488C1.89944 2.93366 2.91247 1.91571 4.15766 1.91571H29.8423C31.0875 1.91571 32.1005 2.93366 32.1005 4.18488V21.8222H32.1076Z" fill="black"/>
<path d="M21.4428 12.7812L29.7581 5.288C30.145 4.93454 30.1802 4.33367 29.8284 3.93781C29.4767 3.54901 28.8787 3.51366 28.4848 3.86712L17.0178 14.2092L14.7807 12.2015C14.7736 12.1945 14.7666 12.1874 14.7666 12.1803C14.7173 12.1308 14.6681 12.0884 14.6118 12.046L5.50858 3.86005C5.11462 3.50659 4.51665 3.54194 4.1649 3.93781C3.81315 4.33367 3.84833 4.93454 4.24229 5.288L12.6561 12.8448L4.27746 20.7268C3.89757 21.0873 3.87647 21.6882 4.23525 22.077C4.4252 22.2749 4.67845 22.381 4.93171 22.381C5.16387 22.381 5.39602 22.2962 5.57893 22.1265L14.0842 14.1314L16.3917 16.2026C16.5746 16.3652 16.7997 16.443 17.0248 16.443C17.2499 16.443 17.4821 16.3581 17.658 16.1956L20.0287 14.0607L28.4848 22.1336C28.6677 22.3103 28.9069 22.3951 29.139 22.3951C29.3923 22.3951 29.6385 22.2962 29.8284 22.0982C30.1872 21.7165 30.1732 21.1086 29.7933 20.748L21.4428 12.7812Z" fill="black"/>
</mask>
<g mask="url(#mask0_12:1180)">
<rect x="-4.72217" y="-5.69409" width="47.2222" height="37.9609" fill="black"/>
</g>
</svg>
