<svg width="36" height="36" viewBox="0 0 36 36" fill="none" xmlns="http://www.w3.org/2000/svg">
<path d="M24.75 -0.000244141H11.25C5.03775 -0.000244141 0 5.03751 0 11.2498V24.7498C0 30.962 5.03775 35.9998 11.25 35.9998H24.75C30.9622 35.9998 36 30.962 36 24.7498V11.2498C36 5.03751 30.9622 -0.000244141 24.75 -0.000244141ZM32.625 24.7498C32.625 29.0923 29.0925 32.6248 24.75 32.6248H11.25C6.9075 32.6248 3.375 29.0923 3.375 24.7498V11.2498C3.375 6.90726 6.9075 3.37476 11.25 3.37476H24.75C29.0925 3.37476 32.625 6.90726 32.625 11.2498V24.7498Z" fill="black"/>
</svg>
