<svg width="79" height="79" viewBox="0 0 79 79" fill="none" xmlns="http://www.w3.org/2000/svg">
<circle cx="39.5" cy="39.5" r="39.5" fill="#EAFAF3"/>
<circle cx="39.5" cy="39.5" r="39.5" fill="#EAFAF3"/>
<path d="M34.9511 19C36.8583 19 38.4891 20.6536 38.4891 22.5875V30.5834C39.8654 29.2749 42.5067 29.1143 44.2164 31.0878C46.0593 29.9436 48.4964 30.9159 49.247 32.4051C53.2141 31.6865 55 34.1625 55 38.2188C55 38.4386 54.9836 39.2819 54.9843 39.5C54.9978 44.4625 52.4764 45.6575 51.8911 49.4081C51.7452 50.3429 50.9312 51.0312 49.9775 51.0312H36.1304L36.1304 51.0311C34.6477 51.0302 33.2331 50.1817 32.5908 48.7517C31.5418 46.4386 28.632 41.1113 26.3486 40.1406C24.8797 39.5163 24.0006 38.4282 24 36.9375C23.9989 34.1971 26.8334 32.3128 29.4014 33.4045C30.0762 33.6915 30.7472 34.0701 31.413 34.5379V22.5875C31.413 20.7097 33.0715 19 34.9511 19ZM34.9792 52.3125H50.4792C51.5492 52.3125 52.4167 53.1729 52.4167 54.2344V58.0781C52.4167 59.1396 51.5492 60 50.4792 60H34.9792C33.9091 60 33.0417 59.1396 33.0417 58.0781V54.2344C33.0417 53.1729 33.9091 52.3125 34.9792 52.3125ZM48.5417 54.5547C47.6499 54.5547 46.9271 55.2717 46.9271 56.1562C46.9271 57.0408 47.6499 57.7578 48.5417 57.7578C49.4334 57.7578 50.1562 57.0408 50.1562 56.1562C50.1562 55.2717 49.4334 54.5547 48.5417 54.5547Z" fill="#5B6A00"/>
</svg>
