<svg width="181" height="48" viewBox="0 0 181 48" fill="none" xmlns="http://www.w3.org/2000/svg">
<rect width="181" height="48" rx="3" fill="#5B6A00"/>
<path d="M67.134 30V18.408H69.096V28.488H75.036V30H67.134ZM80.22 30.18C78.684 30.18 77.556 29.796 76.836 29.028C76.128 28.26 75.774 27.162 75.774 25.734C75.774 24.306 76.134 23.208 76.854 22.44C77.574 21.672 78.696 21.288 80.22 21.288C81.756 21.288 82.884 21.672 83.604 22.44C84.324 23.208 84.684 24.306 84.684 25.734C84.684 27.162 84.324 28.26 83.604 29.028C82.896 29.796 81.768 30.18 80.22 30.18ZM80.22 28.524C81.12 28.524 81.756 28.308 82.128 27.876C82.512 27.432 82.704 26.718 82.704 25.734C82.704 24.75 82.512 24.042 82.128 23.61C81.756 23.178 81.12 22.962 80.22 22.962C79.332 22.962 78.696 23.178 78.312 23.61C77.94 24.042 77.754 24.75 77.754 25.734C77.754 26.718 77.94 27.432 78.312 27.876C78.696 28.308 79.332 28.524 80.22 28.524ZM90.049 33.168C89.413 33.168 88.777 33.126 88.141 33.042C87.505 32.97 86.965 32.856 86.521 32.7V31.188C87.001 31.344 87.553 31.464 88.177 31.548C88.801 31.632 89.395 31.674 89.959 31.674C90.823 31.674 91.453 31.626 91.849 31.53C92.245 31.434 92.443 31.218 92.443 30.882C92.443 30.63 92.347 30.45 92.155 30.342C91.963 30.246 91.597 30.198 91.057 30.198H88.753C87.205 30.198 86.431 29.652 86.431 28.56C86.431 28.212 86.533 27.888 86.737 27.588C86.941 27.288 87.265 27.06 87.709 26.904C87.217 26.664 86.851 26.334 86.611 25.914C86.383 25.494 86.269 24.99 86.269 24.402C86.269 23.31 86.593 22.518 87.241 22.026C87.901 21.534 88.885 21.288 90.193 21.288C90.469 21.288 90.757 21.312 91.057 21.36C91.357 21.396 91.591 21.432 91.759 21.468H94.891L94.837 22.746H93.397C93.625 22.938 93.793 23.178 93.901 23.466C94.009 23.754 94.063 24.066 94.063 24.402C94.063 25.314 93.787 26.034 93.235 26.562C92.683 27.078 91.849 27.336 90.733 27.336C90.541 27.336 90.361 27.33 90.193 27.318C90.037 27.294 89.863 27.27 89.671 27.246C89.311 27.282 88.987 27.378 88.699 27.534C88.411 27.69 88.267 27.9 88.267 28.164C88.267 28.344 88.339 28.476 88.483 28.56C88.627 28.632 88.867 28.668 89.203 28.668H91.597C92.449 28.668 93.103 28.854 93.559 29.226C94.027 29.586 94.261 30.114 94.261 30.81C94.261 31.65 93.895 32.25 93.163 32.61C92.443 32.982 91.405 33.168 90.049 33.168ZM90.193 26.094C90.973 26.094 91.513 25.962 91.813 25.698C92.125 25.434 92.281 24.984 92.281 24.348C92.281 23.712 92.125 23.25 91.813 22.962C91.513 22.674 90.973 22.53 90.193 22.53C89.461 22.53 88.927 22.668 88.591 22.944C88.255 23.22 88.087 23.688 88.087 24.348C88.087 24.96 88.243 25.404 88.555 25.68C88.879 25.956 89.425 26.094 90.193 26.094ZM100.708 30V18.408H102.67V30H100.708ZM104.945 30V21.468H106.745L106.835 22.368C107.219 22.068 107.675 21.816 108.203 21.612C108.743 21.396 109.337 21.288 109.985 21.288C111.089 21.288 111.893 21.546 112.397 22.062C112.901 22.578 113.153 23.382 113.153 24.474V30H111.209V24.564C111.209 23.904 111.071 23.442 110.795 23.178C110.531 22.914 110.027 22.782 109.283 22.782C108.839 22.782 108.401 22.872 107.969 23.052C107.549 23.232 107.195 23.466 106.907 23.754V30H104.945Z" fill="white"/>
</svg>
