<svg width="79" height="79" viewBox="0 0 79 79" fill="none" xmlns="http://www.w3.org/2000/svg">
<circle cx="39.5" cy="39.5" r="39.5" fill="#EAFAF3"/>
<path d="M17 35.75V54.875C17 55.4966 17.5034 56 18.125 56H23.75V33.5H19.25C18.0076 33.5 17 34.5076 17 35.75ZM42.3125 32.375H40.625V29.5625C40.625 29.2517 40.3733 29 40.0625 29H38.9375C38.6267 29 38.375 29.2517 38.375 29.5625V34.0625C38.375 34.3733 38.6267 34.625 38.9375 34.625H42.3125C42.6233 34.625 42.875 34.3733 42.875 34.0625V32.9375C42.875 32.6267 42.6233 32.375 42.3125 32.375ZM51.998 27.8778L40.748 20.3776C40.3784 20.1314 39.9442 20 39.5 20C39.0558 20 38.6216 20.1314 38.252 20.3776L27.002 27.8778C26.6938 28.0833 26.4411 28.3616 26.2664 28.6881C26.0916 29.0146 26.0001 29.3792 26 29.7495V56H35V45.875C35 45.2534 35.5034 44.75 36.125 44.75H42.875C43.4966 44.75 44 45.2534 44 45.875V56H53V29.7502C53 28.9979 52.6238 28.2948 51.998 27.8778ZM39.5 38C36.3936 38 33.875 35.4814 33.875 32.375C33.875 29.2686 36.3936 26.75 39.5 26.75C42.6064 26.75 45.125 29.2686 45.125 32.375C45.125 35.4814 42.6064 38 39.5 38ZM59.75 33.5H55.25V56H60.875C61.4966 56 62 55.4966 62 54.875V35.75C62 34.5076 60.9924 33.5 59.75 33.5Z" fill="#5B6A00"/>
</svg>
