<svg width="79" height="79" viewBox="0 0 79 79" fill="none" xmlns="http://www.w3.org/2000/svg">
<circle cx="39.5" cy="39.5" r="39.5" fill="#EAFAF3"/>
<path d="M30.8 40C35.2491 40 38.85 36.4214 38.85 32C38.85 27.5786 35.2491 24 30.8 24C26.3509 24 22.75 27.5786 22.75 32C22.75 36.4214 26.3509 40 30.8 40ZM36.32 42.2857H35.7234C34.2284 43 32.5681 43.4286 30.8 43.4286C29.0319 43.4286 27.3787 43 25.8766 42.2857H25.28C20.7087 42.2857 17 45.9714 17 50.5143V52.5714C17 54.4643 18.5453 56 20.45 56H41.15C43.0547 56 44.6 54.4643 44.6 52.5714V50.5143C44.6 45.9714 40.8912 42.2857 36.32 42.2857ZM51.5 40C55.3094 40 58.4 36.9286 58.4 33.1429C58.4 29.3571 55.3094 26.2857 51.5 26.2857C47.6906 26.2857 44.6 29.3571 44.6 33.1429C44.6 36.9286 47.6906 40 51.5 40ZM54.95 42.2857H54.6769C53.6778 42.6286 52.6213 42.8571 51.5 42.8571C50.3787 42.8571 49.3222 42.6286 48.3231 42.2857H48.05C46.5837 42.2857 45.2325 42.7071 44.0466 43.3857C45.8003 45.2643 46.9 47.7571 46.9 50.5143V53.2571C46.9 53.4143 46.8641 53.5643 46.8569 53.7143H59.55C61.4547 53.7143 63 52.1786 63 50.2857C63 45.8643 59.3991 42.2857 54.95 42.2857Z" fill="#5B6A00"/>
</svg>
