<svg width="155" height="137" viewBox="0 0 155 137" fill="none" xmlns="http://www.w3.org/2000/svg">
<g clip-path="url(#clip0_201:857)">
<path d="M109.389 106.999L77.0135 121.135L44.7124 106.999V78.1249L73.2001 90.5315C75.6675 91.5844 78.434 91.5844 80.9016 90.5315L109.389 78.1249V106.999Z" fill="#7C8E0E"/>
<path fill-rule="evenodd" clip-rule="evenodd" d="M42.6602 74.9822C43.7127 74.2872 45.0425 74.1716 46.1979 74.675L74.6715 87.0754C76.199 87.7235 77.9023 87.7235 79.4299 87.0754L107.903 74.675C109.059 74.1716 110.389 74.2872 111.441 74.9822C112.494 75.6773 113.128 76.8586 113.128 78.1249V106.999C113.128 108.496 112.244 109.851 110.878 110.447L78.5022 124.583C77.5515 124.999 76.4718 124.998 75.5215 124.582L43.2204 110.446C41.8562 109.849 40.9736 108.495 40.9736 106.999V78.1249C40.9736 76.8586 41.6075 75.6773 42.6602 74.9822ZM48.4508 83.8501V104.535L77.0151 117.035L105.651 104.532V83.8501L82.3871 93.9817L82.3614 93.9926C78.9608 95.4433 75.1405 95.4433 71.74 93.9926L71.7143 93.9817L48.4508 83.8501Z" fill="#7C8E0E"/>
<path fill-rule="evenodd" clip-rule="evenodd" d="M119.857 86.6967C119.857 84.8219 117.942 83.5498 116.305 84.2252L116.281 84.2344L79.3675 98.8878C77.8661 99.5262 76.1607 99.5262 74.6592 98.8878L37.754 84.2378C36.0449 83.5822 34.1698 84.8807 34.1698 86.6967V112.939C34.1698 113.973 34.757 114.897 35.7546 115.358L75.9672 133.022C75.9813 133.028 75.9954 133.035 76.0093 133.041C76.6299 133.332 77.3968 133.332 78.0174 133.041C78.0232 133.038 78.0292 133.036 78.035 133.033C78.0433 133.029 78.0514 133.026 78.0596 133.022L118.272 115.358C119.27 114.897 119.857 113.973 119.857 112.939V86.6967ZM114.898 80.7418C119.09 79.0226 123.596 82.2599 123.596 86.6967V112.939C123.596 115.51 122.094 117.741 119.808 118.786L119.783 118.797L79.5754 136.459C77.9653 137.206 76.0614 137.206 74.4514 136.459L34.2439 118.797L34.2187 118.786C31.933 117.741 30.4312 115.51 30.4312 112.939V86.6967C30.4312 82.1989 34.9813 79.1375 39.1026 80.7314L39.118 80.7375L76.0548 95.3999C76.0715 95.4066 76.0882 95.4134 76.1049 95.4207C76.6814 95.6692 77.3455 95.6692 77.9221 95.4207C77.9386 95.4134 77.9552 95.4066 77.9719 95.3999L114.898 80.7418Z" fill="#7C8E0E"/>
<path d="M147.523 44.6644H144.009V58.0486H147.523V44.6644Z" fill="#7C8E0E"/>
<path d="M150.663 80.6812C150.813 82.4105 149.467 83.9145 147.747 83.9145H145.729H143.71C141.99 83.9145 140.644 82.4105 140.794 80.6812C141.018 78.2749 141.317 75.1922 141.541 73.6882C141.766 72.0341 142.438 68.3497 142.887 65.9434C143.112 64.5148 144.383 63.5374 145.803 63.5374C147.224 63.5374 148.42 64.59 148.719 65.9434C149.168 68.4249 149.841 72.1093 150.065 73.6882C150.14 75.1169 150.439 78.2749 150.663 80.6812Z" fill="#7C8E0E"/>
<path d="M145.729 65.1167C148 65.1167 149.841 63.2653 149.841 60.9811C149.841 58.6972 148 56.8456 145.729 56.8456C143.457 56.8456 141.616 58.6972 141.616 60.9811C141.616 63.2653 143.457 65.1167 145.729 65.1167Z" fill="#7C8E0E"/>
<path d="M149.317 30.3026L136.531 24.513C128.007 20.6781 117.988 20.6781 109.39 24.5881L98.3233 29.626C98.0991 29.7011 97.9494 29.7763 97.7252 29.8515L78.509 38.7242C78.2099 38.8746 77.8362 38.9497 77.5371 38.9497C76.6398 38.9497 75.7425 38.4234 75.3688 37.5963C74.8452 36.3933 75.3688 34.9647 76.565 34.4382L96.1551 25.3399C96.1551 25.3399 96.2297 25.3399 96.2297 25.2647L96.9027 24.9641L105.651 20.9037C109.838 18.1968 109.614 12.1814 104.828 9.92562L89.9491 3.00796C81.6494 -0.977228 71.8545 -0.977228 63.5548 2.85758L31.2539 17.6704L6.42995 29.0997C-2.16871 33.0847 -2.16871 44.2884 6.42995 48.1985L31.2539 59.6277L74.7706 79.6286C76.0416 80.2303 77.5371 80.2303 78.8081 79.6286L122.325 59.6277L149.392 47.2208C156.944 43.687 156.944 33.6864 149.317 30.3026Z" fill="#7C8E0E"/>
</g>
<defs>
<clipPath id="clip0_201:857">
<rect width="155" height="137" fill="white"/>
</clipPath>
</defs>
</svg>
