<svg width="730" height="623" viewBox="0 0 730 623" fill="none" xmlns="http://www.w3.org/2000/svg">
<path d="M638.056 587.917H96.8643C-85.2575 552.327 49.0967 362.234 29.3131 277.357C9.52952 192.479 -1.57232 76.858 86.3548 44.3143C174.282 11.7707 234.47 83.664 295.579 106.972C356.689 130.281 397.575 103.454 489.898 64.7535C582.222 26.0529 673.502 120.033 719.664 247.129C756.593 348.806 678.356 545.405 638.056 587.917Z" fill="#FFEFE4"/>
<path d="M71.8294 58.9959C62.7716 64.2605 59.738 66.9095 57.4858 74.4806C59.8583 80.4467 63.4829 85.8307 68.5769 90.8623C75.1023 84.1813 79.491 83.7859 88.6331 80.4191C80.3991 86.1042 76.379 87.1918 72.9881 94.8319C81.3353 101.711 92.7439 108.007 107.83 114.371C109.508 97.9063 108.144 81.865 105.145 71.9279C99.398 72.0326 96.5931 74.221 93.3899 77.1733C94.6148 72.4461 97.4419 71.3275 103.014 68.3862C98.8439 58.5236 94.0482 53.2748 85.0345 47.4875C79.6121 49.187 77.5194 53.8618 74.8367 56.2499C75.4947 53.0216 76.868 47.9334 81.8773 45.5602C74.75 41.4165 63.399 40.0803 53.9327 36.3756C51.6829 49.6726 53.1721 58.4998 55.4637 68.0683C58.182 63.2192 61.668 62.0251 71.8294 58.9959Z" fill="#7C8E0E"/>
<path fill-rule="evenodd" clip-rule="evenodd" d="M70.8286 59.2959C66.4889 54.4212 61.693 49.1788 56.3842 43.3758C55.402 42.3021 54.4022 41.2093 53.3845 40.096C53.5343 38.8946 53.7162 37.6564 53.9327 36.3769C55.2948 36.9099 56.696 37.394 58.118 37.8444C58.8903 38.6887 59.6528 39.5218 60.4056 40.3443C85.5555 67.8237 99.8626 83.4559 108.346 107.781C108.227 109.961 108.056 112.162 107.831 114.371C106.812 113.941 105.809 113.511 104.823 113.082C100.965 100.74 95.7502 90.8546 88.3533 80.6127C88.4463 80.5489 88.5398 80.4846 88.6339 80.4197C88.5225 80.4607 88.4118 80.5013 88.3018 80.5414C83.5184 73.9262 77.8241 67.1596 70.9961 59.4841C71.2682 59.324 71.546 59.1617 71.8298 58.9968C71.4886 59.0985 71.155 59.1981 70.8286 59.2959Z" fill="#5B6A00"/>
<path d="M58.0834 89.3857C54.2086 96.7325 53.2834 99.7874 54.9541 105.816C59.0586 108.82 63.7601 110.906 69.3012 112.137C70.8777 104.906 73.6618 102.793 78.3916 96.6841C75.2474 103.966 73.0023 106.389 73.9364 112.943C82.4418 114.044 92.7598 113.464 105.579 111.381C99.7809 99.6272 92.1162 89.4383 85.9202 84.0336C82.1009 86.5237 81.1357 89.1733 80.2242 92.5031C79.0592 88.8154 80.4892 86.8744 82.9978 82.5545C76.0459 77.6927 70.6141 76.1904 62.12 76.103C59.1895 79.5267 59.7491 83.5447 58.9501 86.2768C58.0345 83.8335 56.8175 79.8411 59.1868 76.1393C52.6523 76.3603 44.4593 80.2437 36.537 81.7443C40.6177 91.6137 45.332 96.9095 50.8974 102.365C50.6851 97.9665 52.5264 95.6973 58.0834 89.3857Z" fill="#97AB1E"/>
<path fill-rule="evenodd" clip-rule="evenodd" d="M57.5265 90.0174C52.5624 88.573 47.1373 87.0738 41.1322 85.4143C40.0263 85.1087 38.9006 84.7976 37.7545 84.4805C37.3463 83.6039 36.9442 82.6886 36.5481 81.7301C37.6994 81.5121 38.8564 81.2437 40.0132 80.9435C40.8763 81.182 41.7284 81.4173 42.5698 81.6496L42.5706 81.6499C48.5298 83.2953 53.9511 84.7921 58.9449 86.2478C58.9476 86.2549 58.9502 86.262 58.9529 86.2691C58.9546 86.2633 58.9563 86.2574 58.958 86.2516C77.7854 91.7402 90.5346 96.6435 103.118 106.712C103.963 108.239 104.782 109.802 105.567 111.394C104.693 111.536 103.831 111.671 102.98 111.799C95.2018 105.145 87.5452 100.708 78.2735 96.95C78.3116 96.8623 78.3499 96.774 78.3883 96.6849C78.3267 96.7646 78.2654 96.8436 78.2044 96.922C72.2092 94.4961 65.5382 92.3518 57.723 90.0746C57.8414 89.8471 57.9627 89.6153 58.0872 89.3792C57.8959 89.5966 57.709 89.8093 57.5265 90.0174Z" fill="#5B6A00"/>
<path d="M669.058 241.293H652.92V243.31H669.058V241.293Z" fill="#758082"/>
<ellipse cx="670.402" cy="241.965" rx="2.01724" ry="4.03448" fill="#8D8B8B"/>
<rect x="658.42" y="229.999" width="8" height="338" fill="#C4C4C4"/>
<path d="M698.42 614.03C698.42 618.276 694.356 622.999 690.128 622.999C681.198 622.999 679.921 616.593 680.559 612.749C681.197 608.905 684.388 605.701 688.215 605.061C692.041 604.42 697.782 608.904 698.42 614.03Z" fill="#2C2A2A"/>
<circle cx="690.92" cy="615.499" r="7.5" fill="black"/>
<path d="M673.42 580.023C673.42 583.326 670.259 586.999 666.971 586.999C660.025 586.999 659.032 582.016 659.528 579.027C660.024 576.037 662.506 573.545 665.482 573.047C668.458 572.549 672.924 576.037 673.42 580.023Z" fill="#2C2A2A"/>
<circle cx="667.42" cy="580.999" r="6" fill="black"/>
<path d="M658.424 566.183L663.433 563.001L689.933 604.72L684.924 607.902L658.424 566.183Z" fill="#C4C4C4"/>
<path d="M684.511 608.071L684.78 608.494L685.203 608.224L689.396 605.545L689.396 606.57L685.083 609.445L658.963 568.091L658.963 567.886L684.511 608.071Z" stroke="#9B9B9B"/>
<rect x="67.4197" y="568.999" width="8" height="599" transform="rotate(-90 67.4197 568.999)" fill="#C4C4C4"/>
<path d="M63.7817 241.293H79.9197V243.31H63.7817V241.293Z" fill="#758082"/>
<ellipse rx="2.01724" ry="4.03448" transform="matrix(-1 0 0 1 62.4371 241.965)" fill="#8D8B8B"/>
<rect width="8" height="338" transform="matrix(-1 0 0 1 74.4197 229.999)" fill="#C4C4C4"/>
<path d="M34.4197 614.03C34.4197 618.276 38.4836 622.999 42.7111 622.999C51.6413 622.999 52.9179 616.593 52.2801 612.749C51.6422 608.905 48.451 605.701 44.6247 605.061C40.7984 604.42 35.0576 608.904 34.4197 614.03Z" fill="#2C2A2A"/>
<circle r="7.5" transform="matrix(-1 0 0 1 41.9197 615.499)" fill="black"/>
<path d="M59.4197 580.023C59.4197 583.326 62.5805 586.999 65.8686 586.999C72.8143 586.999 73.8072 582.016 73.3111 579.027C72.815 576.037 70.3329 573.545 67.3569 573.047C64.3809 572.549 59.9158 576.037 59.4197 580.023Z" fill="#2C2A2A"/>
<circle r="6" transform="matrix(-1 0 0 1 65.4197 580.999)" fill="black"/>
<path d="M74.415 566.183L69.4067 563.001L42.9066 604.72L47.915 607.902L74.415 566.183Z" fill="#C4C4C4"/>
<path d="M48.328 608.071L48.0591 608.494L47.6369 608.224L43.443 605.545L43.443 606.57L47.7567 609.445L73.876 568.091L73.876 567.886L48.328 608.071Z" stroke="#9B9B9B"/>
<rect x="79.5295" y="79.417" width="575.032" height="328.305" fill="#5B6A00"/>
<rect x="89.7898" y="89.417" width="555.032" height="308.305" stroke="#AD6333" stroke-width="20"/>
<mask id="mask0_12:370" style="mask-type:alpha" maskUnits="userSpaceOnUse" x="79" y="79" width="576" height="329">
<rect x="89.7898" y="89.417" width="555.032" height="308.112" stroke="#794320" stroke-width="20"/>
</mask>
<g mask="url(#mask0_12:370)">
<path d="M643.828 69.0337C644.049 69.2606 644.27 69.4903 644.49 69.7228L691.259 118.466L734.377 460.83C462.731 450.455 -46.0681 427.143 91.9112 416.89C264.385 404.075 410.988 307.041 568.371 230.146C693.26 169.128 671.501 98.2617 644.49 69.7228L643.828 69.0337Z" fill="#794320"/>
</g>
<path fill-rule="evenodd" clip-rule="evenodd" d="M545.967 67.6387C545.342 67.8623 545.025 68.5259 545.26 69.121L578.992 154.484L578.997 154.497C593.201 188.011 605.863 209.563 619.397 227.037C631.291 242.394 643.847 254.58 658.624 268.922C660.644 270.884 662.707 272.885 664.815 274.941C665.281 275.396 666.048 275.405 666.526 274.962C667.005 274.518 667.014 273.789 666.548 273.334C664.435 271.274 662.371 269.27 660.351 267.309C645.564 252.956 633.133 240.89 621.346 225.672C607.964 208.395 595.395 187.028 581.248 153.649L547.526 68.3112C547.291 67.7162 546.593 67.4151 545.967 67.6387Z" fill="#7C8E0E"/>
<path d="M558.022 98.1947C557.086 85.6879 564.142 88.5325 569.568 82.3135C568.889 93.8514 566.653 97.6488 558.022 98.1947Z" fill="#97AB1E"/>
<path d="M573.158 134.443C572.222 121.936 579.278 124.78 584.704 118.561C584.025 130.099 581.789 133.897 573.158 134.443Z" fill="#97AB1E"/>
<path d="M592.934 181.353C591.998 168.847 599.054 171.691 604.48 165.472C603.801 177.01 601.565 180.807 592.934 181.353Z" fill="#97AB1E"/>
<path d="M620.066 226.232C619.131 213.725 626.187 216.569 631.612 210.35C630.933 221.888 628.698 225.686 620.066 226.232Z" fill="#97AB1E"/>
<path d="M654.007 262.401C653.072 249.894 660.128 252.739 665.553 246.52C664.874 258.058 662.639 261.855 654.007 262.401Z" fill="#97AB1E"/>
<path d="M584.01 164.835C574.83 168.971 575.178 163.095 569.117 160.903C577.977 158.199 581.404 158.761 584.01 164.835Z" fill="#97AB1E"/>
<path d="M566.42 121.284C557.241 125.42 557.589 119.544 551.527 117.352C560.387 114.648 563.815 115.209 566.42 121.284Z" fill="#97AB1E"/>
<path d="M550.432 81.6363C541.253 85.7727 541.601 79.8962 535.539 77.7045C544.399 75.0005 547.827 75.5618 550.432 81.6363Z" fill="#97AB1E"/>
<path d="M603.447 202.092C596.314 208.97 594.523 203.336 588.039 203.253C595.387 197.824 598.809 197.235 603.447 202.092Z" fill="#97AB1E"/>
<path d="M646.039 256.331C638.427 262.728 637.047 256.991 630.583 256.485C638.306 251.549 641.762 251.183 646.039 256.331Z" fill="#97AB1E"/>
<mask id="mask1_12:370" style="mask-type:alpha" maskUnits="userSpaceOnUse" x="517" y="357" width="66" height="69">
<path d="M575.929 425.9L580.061 396.25L582.009 382.142L523.607 357.021L517.332 361.413L575.929 425.9Z" fill="#C4C4C4"/>
</mask>
<g mask="url(#mask1_12:370)">
<path d="M561.247 375.253L570.549 373.643L577.012 380.355L574.296 392.326C574.296 392.326 559.239 396.676 557.272 396.129C555.304 395.583 522.421 368.301 522.421 368.301C518.8 367.879 515.613 367.601 514.163 366.152L505.957 342.399C506.965 341.037 508.674 340.149 512.064 338.528L519.803 348.414C515.99 341.223 514.009 337.253 518.122 333.197C520.531 338.045 523.019 341.264 528.741 347.57C530.301 352.19 526.991 354.02 525.9 358.529L561.247 375.253Z" fill="#FCC29D"/>
<path d="M570.412 373.449L561.13 375.049L526.737 357.197C527.826 352.714 530.25 352.11 528.693 347.517C522.984 341.245 520.501 338.044 518.097 333.223C514.401 336.854 515.637 340.417 518.698 346.312L522.187 350.675L522.493 359.747C530.845 372.148 537.693 375.77 557.235 386.41C564.372 387.159 569.966 388.732 574.804 388.325L576.861 380.124L570.412 373.449Z" fill="#FFD3B7"/>
<path d="M511.348 358.435L511.538 357.863L514.505 353.58L517.937 346.014L512.052 338.522C509.034 339.992 507.445 340.856 505.583 342.77L511.348 358.435Z" fill="#FFD3B7"/>
</g>
<mask id="mask2_12:370" style="mask-type:alpha" maskUnits="userSpaceOnUse" x="620" y="382" width="65" height="67">
<path d="M684.255 384.393L654.347 383.099L640.118 382.501L620.663 443.026L625.632 448.856L684.255 384.393Z" fill="#C4C4C4"/>
</mask>
<g mask="url(#mask2_12:370)">
<path d="M640.965 404.069L639.35 395.953L646.785 388.688L659.825 388.669C659.825 388.669 664.344 401.444 663.716 403.345C663.089 405.246 632.764 440.785 632.764 440.785C632.247 444.162 631.894 447.115 630.287 448.734L604.202 461.122C602.73 460.489 601.786 459.121 600.067 456.378L610.991 447.294C603.073 452.251 598.704 454.876 594.335 451.981C599.671 448.786 603.227 445.857 610.208 439.349C615.28 436.972 617.229 439.6 622.139 439.654L640.965 404.069Z" fill="#FCC29D"/>
<path d="M639.672 395.546L641.301 403.711L620.983 438.965C616.031 438.91 615.398 436.817 610.283 439.209C603.243 445.757 599.657 448.703 594.276 451.919C598.244 454.541 602.212 452.66 608.794 448.616L613.684 444.504L623.743 442.316C637.618 432.059 641.739 425.026 653.834 404.89C654.774 398.196 656.604 392.741 656.229 388.396L647.17 388.236L639.672 395.546Z" fill="#FFD3B7"/>
<path d="M622.117 452.8L621.486 452.747L616.785 450.929L608.451 449.377L600.057 456.341C601.639 458.797 602.572 460.07 604.664 461.374L622.117 452.8Z" fill="#FFD3B7"/>
</g>
<path d="M661.469 390.071C643.096 359.063 633.892 355.723 625.022 356.863C616.152 358.002 617.476 373.377 637.788 403.284C649.108 401.701 652.112 397.933 661.469 390.071Z" fill="#A6893E"/>
<path d="M635.468 500.427L642.362 486.848L615.205 482.879L611.236 500.427L629.828 565.394H647.167L635.468 500.427Z" fill="#FFD3B7"/>
<path d="M568.203 492.28L576.35 479.746L597.658 486.848L592.017 497.084L603.925 550.98L587.004 556.412L568.203 492.28Z" fill="#FFD3B7"/>
<path fill-rule="evenodd" clip-rule="evenodd" d="M589.413 484.1L597.658 486.848L592.018 497.084L603.925 550.98L587.004 556.412L585.52 551.349L595.777 548.056L583.87 494.16L589.413 484.1ZM633.395 485.538L627.321 497.502L639.02 562.47H628.991L629.828 565.395H647.167L635.469 500.427L642.362 486.848L633.395 485.538Z" fill="#FCC29D"/>
<path d="M644.312 489.77C653.945 468.82 657.4 457.331 654.994 437.966H619.45C619.672 448.275 617.812 459.487 610.61 489.77C622.365 494.297 629.448 495.254 644.312 489.77Z" fill="#A6893E"/>
<path fill-rule="evenodd" clip-rule="evenodd" d="M655.162 438.008C657.572 457.316 654.111 468.772 644.463 489.661C641.265 490.836 638.427 491.714 635.825 492.324C645.307 471.734 648.697 460.306 646.306 441.144H619.559C619.582 440.077 619.58 439.038 619.558 438.008H655.162Z" fill="#997B2D"/>
<path d="M602.157 489.858C617.64 472.836 624.385 462.951 627.892 443.812L593.936 433.107C591.057 442.977 585.919 453.079 569.96 479.708C579.833 487.553 586.312 490.596 602.157 489.858Z" fill="#A6893E"/>
<path fill-rule="evenodd" clip-rule="evenodd" d="M627.893 443.812C624.385 462.951 617.64 472.836 602.158 489.858C598.527 490.027 595.388 489.998 592.587 489.758C607.532 473.245 614.112 463.373 617.562 444.549L592.775 436.735C593.205 435.503 593.587 434.303 593.936 433.107L627.893 443.812Z" fill="#997B2D"/>
<path d="M634.202 357.792C626.54 351.998 605.688 353.285 591.401 374.44L583.871 447.99C612.255 451.033 638.082 453.745 660.328 440.614C655.302 393.875 641.864 363.586 634.202 357.792Z" fill="#C1A764"/>
<path d="M548.861 286.885C600.282 300.616 629.866 305.325 680.677 304.433C654.395 283.882 641.878 279.47 621.499 272.687C597.126 268.063 581.276 270.174 548.861 286.885Z" fill="#4F5B00"/>
<path d="M666.263 293.984C665.769 302.611 664.041 311.25 660.326 320.558L589.509 319.407C584.808 303.448 583.06 294.003 584.151 285.628L585.792 279.361L635.562 261.22L666.263 293.984Z" fill="#652C08"/>
<path d="M562.099 315.191C563.311 307.495 566.762 313.083 568.335 316.84L570.837 330.958C567.419 328.909 560.886 322.888 562.099 315.191Z" fill="#FCC29D"/>
<path d="M640.91 347.385C647.56 340.608 651.047 334.663 651.943 311.293C657.153 281.748 651.198 273.889 631.626 258.792C598.79 254.882 585.357 263.092 574.331 304.765C570.59 330.835 571.58 336.93 575.668 341.391C579.693 346.468 587.004 352.735 601.836 359.21C616.041 360.464 631.727 355.009 640.91 347.385Z" fill="#FFD3B7"/>
<path d="M664.834 320.589C661.456 311.429 655.544 317.319 653.011 321.409L650.081 337.381C656.406 335.6 668.212 329.749 664.834 320.589Z" fill="#FCC29D"/>
<path d="M630.892 288.646C637.892 302.421 638.758 307.165 643.743 309.601C643.743 332.405 643.743 344.791 643.743 361.656C653.525 328.725 659.518 308.254 660.538 271.264L577.187 260.192C572.257 268.827 563.712 280.065 564.813 296.543C565.908 323.67 567.312 332.027 572.184 355.595C572.482 336.246 570.09 332.248 580.007 300.771L577.191 306.843C582.606 302.795 588.408 299.235 593.595 286.179C604.757 292.064 611.197 295.556 616.142 294.873C615.077 293.416 614.535 292.468 614.497 288.596C619.806 293.854 623.462 296.677 634.181 300.939C632.594 298.324 631.852 295.787 630.892 288.646Z" fill="#743A15"/>
<path d="M548.796 286.931C602.588 278.039 631.121 284.126 680.63 304.402L670.663 289.153C667.63 264.255 670.663 238.884 617.504 230.946C581.573 234.289 575.103 242.916 563.402 272.668L548.796 286.931Z" fill="#695821"/>
<path d="M563.402 272.667C606.4 270.239 629.813 272.689 670.665 289.154L669.814 281.739C629.597 264.077 607.351 261.299 566.451 265.313L563.402 272.667Z" fill="#C1A764"/>
<path d="M629.425 332.625C633.257 332.609 637.547 331.217 639.617 327.837L640.655 323.088L640.642 320.819L639.56 317.729L637.201 314.645L632.289 311.778L625.267 312.427L620.409 314.222C620.409 314.222 618.564 316.33 617.51 319.493C616.248 322.18 616.976 326.344 617.22 326.871C617.464 327.398 617.272 329.17 620.047 330.602C622.823 332.035 625.594 332.641 629.425 332.625Z" fill="#F8F4F4"/>
<path d="M622.286 322.994C622.304 326.64 625.266 329.581 628.9 329.563C632.535 329.546 635.467 326.577 635.448 322.931C635.43 319.286 632.469 316.344 628.834 316.362C625.199 316.379 622.268 319.349 622.286 322.994Z" fill="#652C08"/>
<path d="M623.095 320.309C623.1 321.335 623.933 322.162 624.955 322.157C625.978 322.152 626.802 321.317 626.797 320.291C626.792 319.266 625.959 318.438 624.937 318.443C623.914 318.448 623.089 319.284 623.095 320.309Z" fill="#F2F1F1"/>
<path d="M640.627 318.138C642.025 321.226 640.738 325.41 639.305 328.664C640.151 324.791 640.413 321.026 639.02 318.763C637.626 316.5 635.769 313.62 630.933 312.816C626.097 312.011 622.987 312.753 618.066 315.965C622.493 312.119 626.547 310.359 631.615 311.369C636.683 312.379 639.229 315.049 640.627 318.138Z" fill="#652C08"/>
<path fill-rule="evenodd" clip-rule="evenodd" d="M634.176 297.808C636.492 298.41 638.719 299.746 641.712 302.168L644.353 298.884C641.202 296.335 638.415 294.551 635.231 293.724C632.029 292.892 628.665 293.087 624.459 294.017L625.365 298.137C629.252 297.277 631.877 297.211 634.176 297.808Z" fill="#652C08"/>
<path d="M617.53 345.304C611.868 353.966 597.63 351.804 593.457 342.237L617.53 345.304Z" fill="#FC8D8D"/>
<path d="M584.624 330.082C581.358 329.68 577.863 327.867 576.496 324.303L576.171 319.483L576.45 317.231L577.738 314.272L580.115 311.446L584.644 309.093L590.557 310.443L595.487 313.186C595.487 313.186 596.731 316.484 596.949 318.199C597.168 319.914 596.949 321.542 596.582 324.277C596.582 325.093 595.4 327.873 592.863 329.016C590.327 330.159 587.891 330.483 584.624 330.082Z" fill="#F8F4F4"/>
<path d="M576.452 314.956C574.943 317.928 575.746 322.194 576.757 325.545C576.323 321.622 576.402 317.851 577.838 315.7C579.273 313.55 581.175 310.82 585.57 310.383C589.966 309.945 592.687 310.919 596.823 314.49C593.182 310.324 589.7 308.265 585.081 308.89C580.461 309.514 577.96 311.984 576.452 314.956Z" fill="#652C08"/>
<path d="M582.758 319.699C582.158 323.015 584.307 326.18 587.559 326.769C590.81 327.358 593.932 325.147 594.532 321.832C595.131 318.516 592.982 315.35 589.731 314.761C586.48 314.172 583.358 316.383 582.758 319.699Z" fill="#652C08"/>
<path d="M583.613 317.903C583.43 318.912 584.098 319.878 585.104 320.06C586.11 320.242 587.073 319.572 587.256 318.563C587.438 317.554 586.771 316.588 585.765 316.405C584.759 316.223 583.795 316.894 583.613 317.903Z" fill="#F2F1F1"/>
<path fill-rule="evenodd" clip-rule="evenodd" d="M588.671 293.662C586.292 293.919 583.894 294.915 580.579 296.873L578.446 293.239C581.935 291.177 584.952 289.821 588.224 289.468C591.513 289.113 594.812 289.797 598.837 291.332L597.339 295.276C593.619 293.857 591.032 293.408 588.671 293.662Z" fill="#652C08"/>
<path d="M622.059 337.29C622.078 339.161 624.614 340.653 627.724 340.622C630.835 340.59 633.341 339.047 633.322 337.175C633.303 335.304 630.767 333.812 627.657 333.844C624.547 333.875 622.041 335.418 622.059 337.29Z" fill="#FF9798" fill-opacity="0.5"/>
<path d="M578.729 334.537C578.597 336.404 581.004 338.097 584.106 338.319C587.209 338.54 589.831 337.206 589.964 335.339C590.097 333.472 587.689 331.779 584.587 331.558C581.485 331.336 578.862 332.67 578.729 334.537Z" fill="#FF9798" fill-opacity="0.5"/>
<path d="M625.741 241.967C625.657 242.756 625.423 243.484 625.039 244.152C624.656 244.811 624.194 245.407 623.655 245.942C623.124 246.477 622.55 246.954 621.933 247.373C621.326 247.784 620.752 248.136 620.211 248.428C620.912 248.565 621.596 248.813 622.265 249.17C622.942 249.52 623.534 249.973 624.038 250.528C624.551 251.076 624.943 251.718 625.214 252.455C625.493 253.185 625.586 253.992 625.492 254.879C625.414 255.606 625.238 256.251 624.964 256.814C624.699 257.368 624.37 257.858 623.976 258.283C623.583 258.698 623.148 259.047 622.671 259.328C622.203 259.61 621.732 259.833 621.258 259.998C620.785 260.163 620.322 260.271 619.869 260.322C619.425 260.382 619.034 260.395 618.699 260.359C617.85 260.269 617.153 260.092 616.609 259.828C616.074 259.565 615.654 259.27 615.349 258.941C615.054 258.605 614.858 258.266 614.76 257.924C614.663 257.582 614.627 257.287 614.654 257.038C614.694 256.657 614.813 256.302 615.008 255.973C615.214 255.636 615.469 255.341 615.774 255.086C616.078 254.831 616.423 254.617 616.808 254.442C617.194 254.259 617.588 254.131 617.989 254.057L618.221 254.525C617.631 254.767 617.179 255.114 616.863 255.565C616.547 256.006 616.364 256.467 616.313 256.945C616.285 257.211 616.308 257.496 616.383 257.8C616.468 258.096 616.608 258.375 616.803 258.638C617.008 258.902 617.269 259.132 617.588 259.327C617.917 259.514 618.311 259.632 618.771 259.681C619.443 259.752 620.084 259.695 620.694 259.508C621.304 259.313 621.846 259.016 622.317 258.618C622.799 258.212 623.191 257.72 623.494 257.142C623.806 256.565 623.999 255.927 624.073 255.226C624.15 254.508 624.067 253.858 623.825 253.277C623.592 252.696 623.248 252.193 622.792 251.768C622.347 251.336 621.812 250.987 621.187 250.724C620.571 250.461 619.919 250.293 619.229 250.22C618.946 250.19 618.666 250.179 618.388 250.185C618.111 250.182 617.846 250.195 617.593 250.222C617.349 250.241 617.128 250.262 616.929 250.286C616.73 250.309 616.576 250.329 616.467 250.344L616.348 250.197L617.771 248.425C617.871 248.408 617.985 248.389 618.112 248.367C618.221 248.351 618.352 248.338 618.505 248.328C618.659 248.308 618.83 248.3 619.018 248.301C619.47 248.089 619.946 247.813 620.447 247.471C620.958 247.122 621.431 246.71 621.866 246.236C622.311 245.754 622.692 245.203 623.008 244.582C623.334 243.962 623.537 243.271 623.618 242.508C623.755 241.223 623.554 240.219 623.014 239.499C622.473 238.778 621.638 238.357 620.506 238.237C619.852 238.168 619.178 238.24 618.485 238.453C617.792 238.658 617.106 239.016 616.426 239.526C615.754 240.038 615.102 240.704 614.469 241.525C613.845 242.346 613.271 243.33 612.747 244.476C612.231 245.623 611.778 246.942 611.386 248.434C610.995 249.925 610.701 251.593 610.504 253.438C610.423 254.2 610.379 254.908 610.372 255.562C610.374 256.217 610.415 256.791 610.497 257.284C610.588 257.769 610.721 258.155 610.896 258.442C611.071 258.73 611.296 258.888 611.57 258.917C611.844 258.946 612.082 258.77 612.284 258.388C612.495 257.998 612.675 257.483 612.824 256.844C612.982 256.198 613.113 255.472 613.217 254.667C613.329 253.863 613.429 253.053 613.516 252.237C613.648 250.996 613.754 249.828 613.835 248.734C613.917 247.631 613.982 246.647 614.029 245.782C614.085 244.918 614.127 244.196 614.153 243.616C614.179 243.036 614.198 242.648 614.21 242.452L615.798 242.15C615.834 242.225 615.873 242.445 615.915 242.808C615.957 243.171 615.986 243.649 616.004 244.243C616.022 244.827 616.016 245.508 615.987 246.285C615.968 247.054 615.911 247.882 615.816 248.769C615.657 250.267 615.472 251.579 615.263 252.705C615.063 253.823 614.844 254.79 614.605 255.608C614.367 256.416 614.117 257.085 613.855 257.613C613.602 258.142 613.338 258.558 613.065 258.861C612.801 259.155 612.534 259.356 612.263 259.461C612 259.577 611.745 259.622 611.498 259.596C610.958 259.538 610.492 259.301 610.099 258.882C609.713 258.474 609.402 257.952 609.166 257.317C608.93 256.674 608.775 255.953 608.699 255.156C608.623 254.35 608.63 253.53 608.719 252.697C608.847 251.5 609.089 250.275 609.446 249.021C609.803 247.768 610.263 246.557 610.826 245.388C611.389 244.211 612.047 243.11 612.8 242.087C613.554 241.055 614.39 240.176 615.308 239.448C616.227 238.712 617.22 238.158 618.288 237.787C619.365 237.408 620.5 237.282 621.694 237.408C622.375 237.481 622.979 237.639 623.508 237.883C624.046 238.119 624.49 238.436 624.841 238.832C625.194 239.219 625.449 239.676 625.607 240.204C625.765 240.732 625.81 241.319 625.741 241.967Z" fill="#C1A764"/>
<path d="M617.712 539.908C625.441 531.344 636.726 531.395 645.496 536.566L651.345 584.611C645.751 590.927 640.288 591.535 629.828 591.714C629.828 591.714 619.592 590.045 606.849 580.435C594.106 570.826 595.987 564.351 603.298 562.261C610.61 560.172 624.815 564.974 624.815 564.974L617.712 539.908Z" fill="#867643"/>
<path d="M575.298 397.652C607.912 382.311 612.112 373.465 611.821 364.527C611.53 355.589 596.1 355.446 564.396 372.823C564.896 384.242 568.361 387.59 575.298 397.652Z" fill="#A6893E"/>
<path fill-rule="evenodd" clip-rule="evenodd" d="M641.283 590.754L633.672 533.022C627.946 532.846 622.224 534.91 617.712 539.908L624.815 564.974C624.815 564.974 610.61 560.172 603.298 562.261C595.987 564.351 594.107 570.826 606.85 580.435C619.593 590.045 629.829 591.714 629.829 591.714C634.487 591.634 638.154 591.47 641.283 590.754Z" fill="#695821"/>
<path d="M650.94 581.282L651.345 584.611C645.751 590.927 640.288 591.535 629.828 591.714C629.828 591.714 619.592 590.045 606.849 580.435C599.193 574.662 596.816 570.02 597.723 566.781C598.68 569.572 601.445 572.969 606.64 576.887C619.383 586.497 629.619 588.165 629.619 588.165C639.956 587.989 645.413 587.393 650.94 581.282Z" fill="#5F4725"/>
<path d="M566.322 586.702C570.709 588.164 580.945 589 594.732 583.36C600.665 580.933 607.267 575.004 608.102 574.168C608.938 573.333 614.578 566.648 615.205 565.394C615.832 564.141 616.093 560.726 615.622 559.298C615.084 557.663 614.369 556.83 614.369 556.83L602.879 550.145L560.891 582.524C560.891 582.524 561.935 585.24 566.322 586.702Z" fill="#322007"/>
<path d="M578.439 537.611C587.724 528.898 592.616 524.998 604.76 531.762C604.76 531.762 617.294 561.841 615.414 559.126C613.534 556.412 612.281 555.782 607.894 555.575C603.507 555.367 592.853 576.465 586.586 580.643C580.319 584.821 567.785 587.328 562.562 584.821C557.34 582.314 560.473 572.914 566.323 572.078C572.172 571.242 584.288 564.766 584.706 560.38C585.124 555.993 578.439 537.611 578.439 537.611Z" fill="#867643"/>
<path fill-rule="evenodd" clip-rule="evenodd" d="M599.621 564.062L591.53 528.614C587.219 529.574 583.475 532.884 578.438 537.61C578.438 537.61 585.123 555.993 584.705 560.379C584.287 564.766 572.171 571.242 566.322 572.078C560.473 572.913 557.339 582.314 562.562 584.821C567.784 587.327 580.318 584.821 586.585 580.643C589.49 578.706 593.338 573.134 597.067 567.734C597.929 566.485 598.785 565.246 599.621 564.062Z" fill="#695821"/>
<path d="M606.238 552.533C610.625 552.741 612.266 552.235 614.147 554.95C614.88 556.732 615.25 557.713 615.622 559.336C613.742 556.622 612.28 555.783 607.893 555.575C605.539 555.464 601.382 561.484 597.066 567.734L597.066 567.734C593.337 573.135 589.49 578.706 586.585 580.643C580.318 584.821 567.784 587.328 562.562 584.821C561.019 584.08 560.205 582.738 559.975 581.193C560.25 581.416 560.56 581.613 560.907 581.779C566.13 584.286 578.664 581.779 584.931 577.601C587.835 575.665 591.683 570.093 595.412 564.692L595.412 564.692C599.728 558.442 603.885 552.422 606.238 552.533Z" fill="#5F4725"/>
<rect x="476.841" y="310.347" width="2.63525" height="63.0797" transform="rotate(-45.0995 476.841 310.347)" fill="#FFBD5A"/>
<path d="M511.838 350.589C511.561 348.942 512.16 347.809 514.23 346.885L513.574 344.881C513.574 344.881 515.833 343.31 518.738 345.41C521.643 347.509 522.809 347.682 524.216 349.44C525.623 351.197 527.317 355.217 527.386 357.967C527.454 360.718 526.056 364.453 524.216 365.61C522.376 366.766 520.576 367.787 518.162 367.191C515.749 366.594 510.536 362.972 510.536 362.972C509.331 361.972 507.985 361.346 509.466 358.758C508.148 357.177 509.041 354.882 509.993 354.542C510.257 354.015 508.775 352.041 511.838 350.589Z" fill="#FFD3B7"/>
<path d="M524.486 353.751C524.75 352.17 516.317 349.798 516.317 349.798L522.642 361.393C522.642 361.393 524.223 355.332 524.486 353.751Z" fill="#FFD3B7"/>
<path d="M79.1055 435.034L108.928 436.841V588.667L80.045 586.916C79.5172 586.884 79.1055 586.447 79.1055 585.918V435.034Z" fill="#C1A764"/>
<path d="M71.8755 428.804C71.8755 428.251 72.3232 427.804 72.8755 427.804H102.602V436.841H72.8755C72.3232 436.841 71.8755 436.393 71.8755 435.841V428.804Z" fill="#A58E53"/>
<path d="M102.602 427.804H219.087C219.639 427.804 220.087 428.251 220.087 428.804V435.841C220.087 436.393 219.639 436.841 219.087 436.841H102.602V427.804Z" fill="#DCC58B"/>
<path d="M108.024 436.841H212.856V587.667C212.856 588.219 212.409 588.667 211.856 588.667H108.024V436.841Z" fill="#F1DA9E"/>
<rect x="113.947" y="440.956" width="92.9874" height="139.981" stroke="#DCC58B"/>
<rect x="151.404" y="447.686" width="21.6894" height="1.80745" fill="#DCC58B"/>
<rect x="151.404" y="492.872" width="21.6894" height="1.80745" fill="#DCC58B"/>
<rect x="151.404" y="541.673" width="21.6894" height="1.80745" fill="#DCC58B"/>
<rect x="115.254" y="532.636" width="90.3725" height="3.6149" fill="#DCC58B"/>
<rect x="113.447" y="485.642" width="92.1799" height="3.6149" fill="#DCC58B"/>
<rect x="132.112" y="397.603" width="24.6639" height="13.4905" fill="white"/>
<rect x="132.112" y="395.676" width="25.6706" height="2.31265" fill="#DFDFDF"/>
<path fill-rule="evenodd" clip-rule="evenodd" d="M155.77 394.519H131.358V396.447H154.763V409.937H131.358V411.864H155.77V394.519Z" fill="#5B6A00"/>
<rect x="155.77" y="394.519" width="39.0092" height="17.3449" fill="#434E01"/>
<rect x="155.837" y="394.519" width="38.943" height="6.81623" fill="#242B00"/>
<rect x="139.25" y="380.562" width="21.5485" height="13.4905" fill="white"/>
<rect x="139.25" y="378.635" width="22.428" height="2.31265" fill="#DFDFDF"/>
<path fill-rule="evenodd" clip-rule="evenodd" d="M159.919 377.479H138.59V379.406H159.039V392.896H138.59V394.824H159.919V377.479Z" fill="#D73D41"/>
<rect x="159.665" y="377.479" width="39.0092" height="17.3449" fill="#BB3336"/>
<rect x="159.665" y="377.479" width="38.7576" height="2.69809" fill="#892224"/>
<rect x="128.776" y="372.629" width="24.6639" height="4.8755" fill="white"/>
<rect x="128.777" y="371.932" width="25.6706" height="0.8358" fill="#DFDFDF"/>
<path fill-rule="evenodd" clip-rule="evenodd" d="M152.433 371.515H128.021V372.211H151.426V377.087H128.021V377.783H152.433V371.515Z" fill="#FFBD5A"/>
<rect x="152.432" y="371.515" width="39.0092" height="6.2685" fill="#DA9F46"/>
<rect x="152.432" y="371.515" width="38.7576" height="0.9751" fill="#A77831"/>
<path d="M105.425 414.551H161.928C162.525 414.551 163.008 415.305 163.008 416.235V424.656C163.008 425.586 162.525 426.34 161.928 426.34H105.425V414.551Z" fill="#BDCFDD"/>
<path d="M162.28 414.551H198.725V426.34H162.28V414.551Z" fill="white"/>
<path fill-rule="evenodd" clip-rule="evenodd" d="M106.498 411.604C105.906 411.604 105.425 414.057 105.425 415.042L161.93 415.042C161.93 414.057 161.449 411.604 160.857 411.604H106.498ZM161.93 425.28H105.425V426.47C105.425 427.455 105.906 428.254 106.498 428.254H160.857C161.45 428.254 161.93 427.455 161.93 426.47V425.28Z" fill="#794320"/>
<path fill-rule="evenodd" clip-rule="evenodd" d="M199.838 411.604H160.499V415.042H198.765V425.28H160.499V428.254H199.838C200.43 428.254 200.911 427.455 200.911 426.47V413.388C200.911 412.403 200.43 411.604 199.838 411.604Z" fill="#C1A764"/>
<path d="M187.321 434.2V419.929H194.474V434.2L190.54 430.335L187.321 434.2Z" fill="#E8B798"/>
<path d="M75.2457 584.218C74.3934 585.319 73.9436 588.577 73.8252 590.068C73.9041 590.164 74.1566 590.355 74.5354 590.355H86.9646C90.9893 590.259 99.2281 589.862 99.9857 589.036C100.933 588.003 97.6182 581.465 95.6059 579.4C93.5935 577.336 90.2791 574.697 86.3136 574.755C82.3481 574.812 76.311 582.841 75.2457 584.218Z" fill="#758082"/>
<mask id="mask3_12:370" style="mask-type:alpha" maskUnits="userSpaceOnUse" x="73" y="574" width="28" height="17">
<path d="M75.2457 584.218C74.3934 585.319 73.9436 588.577 73.8252 590.068C73.9041 590.164 74.1566 590.355 74.5354 590.355H86.9646C90.9893 590.259 99.2281 589.862 99.9857 589.036C100.933 588.003 97.6182 581.465 95.6059 579.4C93.5935 577.336 90.2791 574.697 86.3136 574.755C82.3481 574.812 76.311 582.841 75.2457 584.218Z" fill="#758082"/>
</mask>
<g mask="url(#mask3_12:370)">
<path d="M75.6601 584.505C74.8078 585.422 74.5947 586.837 74.5947 587.43C74.5947 587.659 74.7249 588.129 75.2458 588.175C75.8968 588.233 77.7316 586.914 79.8623 586.569C81.9931 586.225 89.569 582.899 90.5159 581.637C91.4629 580.375 88.7995 577.966 88.3852 576.934C87.9709 575.902 87.7934 575.787 86.0178 575.558C84.2422 575.328 79.1521 579.916 78.797 580.49C78.4419 581.063 76.7254 583.358 75.6601 584.505Z" fill="#9FA9AB"/>
<path d="M90.6934 578.827C90.1438 577.969 88.8784 576.035 87.379 574.41C88.3654 574.41 91.0012 575.902 93.6527 579.572C96.3043 583.243 96.9277 587.143 96.908 588.634L83.1767 590.527L74.4171 590.355C73.6477 590.355 78.9745 589.265 84.7748 587.946C89.5097 585.308 94.1854 584.275 90.6934 578.827Z" fill="#566165"/>
<path d="M90.575 576.303C89.4386 575.156 87.8918 574.831 87.2605 574.812L88.9177 574.009L94.8364 577.335L100.992 583.3L100.4 590.412L97.2039 589.208C96.8882 588.443 96.1859 586.489 95.9018 584.791C95.5466 582.669 91.9954 577.737 90.575 576.303Z" fill="#3F4A4C"/>
<path d="M85.5442 588.061C88.0945 587.001 91.6996 583.759 91.9363 582.211C99.453 589.093 98.9795 589.322 96.8488 589.781C95.1442 590.148 83.4726 590.565 78.3826 590.928C79.4874 590.508 83.0583 589.093 85.5442 588.061Z" fill="#3F4A4C"/>
</g>
<path d="M86.4192 533.811C83.4588 535.381 82.4632 536.18 81.698 538.501C82.4392 540.355 83.589 542.037 85.2167 543.619C87.3628 541.597 88.7871 541.502 91.7659 540.518C89.0706 542.222 87.7626 542.533 86.6279 544.869C89.3014 547.041 92.9699 549.05 97.83 551.102C98.4505 546.035 98.083 541.079 97.1572 537.997C95.2941 537.995 94.3748 538.653 93.3228 539.545C93.7419 538.094 94.6634 537.766 96.483 536.892C95.1774 533.826 93.6474 532.179 90.7528 530.34C88.9874 530.832 88.2873 532.261 87.4067 532.982C87.635 531.99 88.1038 530.429 89.7385 529.727C87.4476 528.407 83.7747 527.928 80.7237 526.729C79.9326 530.816 80.3742 533.547 81.0724 536.512C81.9761 535.032 83.1115 534.685 86.4192 533.811Z" fill="#7C8E0E"/>
<path fill-rule="evenodd" clip-rule="evenodd" d="M81.6115 528.816L81.6115 528.816L81.6093 528.813C81.2654 528.443 80.9147 528.066 80.5571 527.682C80.605 527.372 80.6603 527.055 80.7233 526.729C81.0674 526.864 81.4193 526.99 81.7762 527.109C82.0815 527.438 82.382 527.761 82.6777 528.078C90.8305 536.842 95.3904 541.743 97.9972 549.46C97.9526 550.005 97.8969 550.553 97.8296 551.102C97.5652 550.991 97.3043 550.879 97.0469 550.768C95.0771 544.369 91.8684 540.06 86.2839 533.883C86.3284 533.859 86.3734 533.835 86.4188 533.811C86.3645 533.825 86.3107 533.84 86.2576 533.854C84.8627 532.311 83.3199 530.653 81.6115 528.816Z" fill="#5B6A00"/>
<path d="M93.5331 522.947C88.9291 523.565 87.2398 524.119 85.0542 526.73C85.0392 529.451 85.6365 532.144 86.8972 534.933C90.6941 533.355 92.5666 533.901 96.8899 534.042C92.5551 534.956 90.7193 534.74 88.0534 537.196C90.3463 541.231 93.9965 545.527 99.1494 550.437C102.577 544.243 104.682 537.73 105.099 533.35C102.716 532.472 101.197 532.883 99.3878 533.529C100.678 531.87 102.028 531.883 104.81 531.62C104.733 527.082 103.631 524.255 100.882 520.542C98.3676 520.342 96.729 521.842 95.2276 522.35C96.0351 521.189 97.4463 519.411 99.903 519.281C97.6576 516.515 93.2066 514.175 89.9253 511.208C86.7888 516.066 85.9347 519.769 85.2876 523.89C87.2127 522.422 88.8463 522.511 93.5331 522.947Z" fill="#97AB1E"/>
<path fill-rule="evenodd" clip-rule="evenodd" d="M93.2125 522.917C92.2319 520.296 91.1234 517.458 89.896 514.315C89.6565 513.701 89.4124 513.076 89.1638 512.439C89.4017 512.036 89.6552 511.626 89.9257 511.207C90.3365 511.579 90.7656 511.94 91.2065 512.294C91.4095 512.814 91.6096 513.326 91.8069 513.831C97.6488 528.782 100.938 537.201 100.313 548.223C99.9444 548.962 99.5564 549.701 99.1498 550.436C98.8426 550.144 98.5408 549.853 98.2443 549.565C98.724 544.045 98.2209 539.291 96.8677 534.046C96.8753 534.045 96.8828 534.043 96.8903 534.042C96.8823 534.041 96.8743 534.041 96.8663 534.041C95.9964 530.67 94.7754 527.097 93.2386 522.987C93.3356 522.973 93.4339 522.96 93.5335 522.947C93.4249 522.936 93.3179 522.927 93.2125 522.917Z" fill="#5B6A00"/>
<path d="M90.4874 581.585C89.1742 583.197 88.357 588.061 88.1125 590.291C88.2249 590.438 88.59 590.736 89.1509 590.753L107.556 591.323C113.52 591.364 125.738 591.146 126.898 589.942C128.348 588.438 123.744 578.483 120.86 575.295C117.976 572.107 113.19 568 107.316 567.904C101.441 567.808 92.1288 579.57 90.4874 581.585Z" fill="#758082"/>
<mask id="mask4_12:370" style="mask-type:alpha" maskUnits="userSpaceOnUse" x="88" y="567" width="40" height="25">
<path d="M90.4874 581.585C89.1742 583.197 88.357 588.061 88.1125 590.291C88.2249 590.438 88.59 590.736 89.1509 590.753L107.556 591.323C113.52 591.364 125.738 591.146 126.898 589.942C128.348 588.438 123.744 578.483 120.86 575.295C117.976 572.107 113.19 568 107.316 567.904C101.441 567.808 92.1288 579.57 90.4874 581.585Z" fill="#758082"/>
</mask>
<g mask="url(#mask4_12:370)">
<path d="M91.0877 582.034C89.7831 583.371 89.4019 585.482 89.3744 586.371C89.3637 586.715 89.5347 587.426 90.3038 587.518C91.2652 587.634 94.0434 585.741 97.2144 585.322C100.386 584.904 111.758 580.264 113.219 578.416C114.68 576.567 110.848 572.834 110.282 571.267C109.717 569.7 109.459 569.52 106.84 569.094C104.222 568.669 96.4715 575.315 95.9191 576.159C95.3666 577.002 92.7185 580.363 91.0877 582.034Z" fill="#9FA9AB"/>
<path d="M113.612 574.21C112.838 572.899 111.054 569.942 108.909 567.437C110.37 567.482 114.204 569.839 117.96 575.464C121.716 581.089 122.458 586.964 122.36 589.199L101.939 591.407L88.9758 590.748C87.8364 590.713 95.7748 589.323 104.425 587.611C111.559 583.873 118.53 582.539 113.612 574.21Z" fill="#566165"/>
<path d="M113.554 570.421C111.924 568.649 109.649 568.091 108.715 568.034L111.206 566.906L119.816 572.164L128.654 581.389L127.448 592.025L122.771 590.073C122.339 588.912 121.39 585.95 121.048 583.392C120.62 580.194 115.591 572.636 113.554 570.421Z" fill="#3F4A4C"/>
<path d="M105.559 587.818C109.384 586.347 114.873 581.651 115.296 579.341C126.107 590.004 125.395 590.326 122.218 590.916C119.677 591.389 102.375 591.478 94.821 591.79C96.4765 591.21 101.83 589.252 105.559 587.818Z" fill="#3F4A4C"/>
</g>
<path d="M118.638 158.701L113.887 138.885L124.779 136.273C126.79 135.791 128.431 135.897 129.703 136.589C130.976 137.282 131.824 138.511 132.247 140.275C132.493 141.3 132.504 142.209 132.282 143C132.08 143.786 131.72 144.457 131.203 145.015C132.123 145.142 132.905 145.464 133.55 145.982C134.211 146.474 134.688 147.336 134.983 148.567C135.431 150.433 135.203 152.017 134.301 153.318C133.398 154.62 131.89 155.523 129.777 156.03L118.638 158.701ZM121.352 145.458L125.106 144.558C126.522 144.218 127.077 143.413 126.772 142.141C126.619 141.505 126.33 141.065 125.902 140.82C125.495 140.57 124.871 140.547 124.03 140.748L120.43 141.611L121.352 145.458ZM123.241 153.335L127.241 152.376C128.021 152.189 128.556 151.887 128.846 151.47C129.137 151.053 129.191 150.465 129.009 149.706C128.857 149.071 128.556 148.633 128.109 148.393C127.661 148.153 127.006 148.137 126.144 148.343L122.267 149.273L123.241 153.335Z" fill="#FFBD5A"/>
<path d="M138.561 153.924L133.809 134.108L148.825 130.507L149.887 134.938L140.656 137.152L141.431 140.383L149.523 138.442L150.601 142.935L142.508 144.875L143.283 148.106L152.514 145.892L153.576 150.323L138.561 153.924Z" fill="#FFBD5A"/>
<path d="M159.757 148.841L156.038 133.333L150.469 134.669L149.436 130.361L166.359 126.303L167.392 130.611L161.823 131.946L165.541 147.454L159.757 148.841Z" fill="#FFBD5A"/>
<path d="M172.636 145.753L167.884 125.937L173.669 124.55L178.421 144.366L172.636 145.753Z" fill="#FFBD5A"/>
<path d="M187.766 142.45C186.433 142.77 185.147 142.97 183.908 143.05C182.664 143.11 181.575 143.045 180.64 142.857L179.496 138.088C180.523 138.297 181.632 138.4 182.824 138.396C184.016 138.392 185.105 138.273 186.089 138.036C187.115 137.79 187.865 137.524 188.338 137.237C188.827 136.924 188.998 136.46 188.85 135.845C188.747 135.414 188.512 135.113 188.145 134.94C187.799 134.763 187.284 134.648 186.598 134.595C185.934 134.538 185.062 134.476 183.983 134.409C182.546 134.298 181.377 134.079 180.474 133.754C179.572 133.428 178.858 132.937 178.332 132.282C177.827 131.623 177.446 130.759 177.19 129.693C176.723 127.744 177.056 126.102 178.189 124.768C179.338 123.407 181.277 122.4 184.005 121.746C185.092 121.485 186.233 121.309 187.426 121.219C188.639 121.123 189.632 121.102 190.404 121.155L191.555 125.955C190.497 125.797 189.508 125.741 188.587 125.789C187.665 125.836 186.815 125.953 186.035 126.14C185.133 126.357 184.381 126.613 183.779 126.909C183.178 127.205 182.948 127.65 183.091 128.245C183.214 128.758 183.571 129.074 184.164 129.192C184.772 129.285 185.817 129.349 187.301 129.383C189.025 129.426 190.381 129.653 191.37 130.067C192.379 130.476 193.136 131.054 193.64 131.8C194.14 132.527 194.512 133.403 194.758 134.428C195.191 136.234 194.843 137.857 193.714 139.299C192.579 140.721 190.597 141.771 187.766 142.45Z" fill="#FFBD5A"/>
<path d="M134.245 187.924L133.611 185.278C133.924 184.053 134.388 182.911 135.002 181.853C135.616 180.795 136.317 179.694 137.106 178.55C137.765 177.589 138.292 176.801 138.687 176.186C139.102 175.566 139.381 175.011 139.524 174.521C139.682 174.006 139.693 173.461 139.555 172.887C139.206 171.43 138.077 170.931 136.169 171.388C135.287 171.6 134.45 171.909 133.658 172.316C132.887 172.718 132.169 173.161 131.504 173.646L130.324 168.723C131.086 168.193 132.009 167.7 133.093 167.245C134.172 166.769 135.286 166.394 136.435 166.118C138.896 165.528 140.873 165.672 142.363 166.551C143.849 167.41 144.826 168.814 145.293 170.762C145.514 171.685 145.593 172.512 145.53 173.244C145.482 173.949 145.299 174.633 144.981 175.295C144.662 175.957 144.22 176.692 143.655 177.5C143.152 178.207 142.659 178.911 142.176 179.612C141.694 180.313 141.332 180.975 141.09 181.597L147.706 180.011L148.768 184.441L134.245 187.924Z" fill="#FFBD5A"/>
<path d="M159.872 182.104C157.595 182.65 155.666 182.701 154.084 182.256C152.518 181.785 151.234 180.867 150.235 179.502C149.235 178.136 148.471 176.356 147.945 174.161C147.419 171.966 147.292 170.034 147.563 168.363C147.835 166.693 148.565 165.303 149.752 164.194C150.956 163.059 152.696 162.219 154.972 161.673C158.378 160.856 161.02 161.155 162.899 162.57C164.774 163.965 166.107 166.313 166.899 169.616C167.686 172.898 167.563 175.596 166.53 177.709C165.496 179.822 163.277 181.287 159.872 182.104ZM158.691 177.181C160.025 176.861 160.842 176.199 161.143 175.194C161.46 174.163 161.41 172.776 160.992 171.033C160.568 169.268 159.985 168.009 159.24 167.255C158.515 166.496 157.486 166.276 156.153 166.596C154.82 166.916 153.992 167.581 153.67 168.591C153.369 169.596 153.43 170.98 153.853 172.744C154.271 174.488 154.845 175.75 155.574 176.529C156.319 177.283 157.358 177.501 158.691 177.181Z" fill="#FFBD5A"/>
<path d="M170.814 179.155L170.18 176.508C170.493 175.284 170.957 174.142 171.571 173.084C172.185 172.025 172.886 170.924 173.675 169.781C174.334 168.82 174.861 168.032 175.256 167.417C175.671 166.796 175.95 166.241 176.093 165.752C176.251 165.236 176.262 164.692 176.124 164.117C175.775 162.661 174.646 162.161 172.738 162.619C171.856 162.83 171.019 163.14 170.228 163.546C169.456 163.948 168.738 164.392 168.074 164.876L166.893 159.953C167.655 159.423 168.578 158.931 169.662 158.476C170.741 158 171.855 157.624 173.004 157.349C175.466 156.759 177.442 156.903 178.932 157.782C180.418 158.64 181.395 160.044 181.862 161.993C182.083 162.916 182.162 163.743 182.099 164.474C182.051 165.18 181.868 165.863 181.55 166.526C181.231 167.188 180.789 167.923 180.224 168.731C179.721 169.437 179.228 170.141 178.745 170.842C178.263 171.544 177.901 172.206 177.66 172.827L184.275 171.241L185.338 175.672L170.814 179.155Z" fill="#FFBD5A"/>
<path d="M188.98 174.51L188.346 171.864C188.659 170.639 189.123 169.497 189.737 168.439C190.351 167.381 191.052 166.28 191.841 165.136C192.5 164.175 193.027 163.387 193.422 162.772C193.837 162.152 194.116 161.597 194.259 161.107C194.417 160.592 194.428 160.047 194.29 159.473C193.941 158.016 192.812 157.517 190.905 157.974C190.023 158.186 189.186 158.495 188.394 158.902C187.622 159.304 186.904 159.747 186.24 160.232L185.059 155.309C185.821 154.779 186.745 154.286 187.828 153.831C188.908 153.355 190.021 152.98 191.17 152.704C193.632 152.114 195.608 152.258 197.099 153.137C198.584 153.996 199.561 155.399 200.028 157.348C200.25 158.271 200.329 159.098 200.265 159.829C200.218 160.535 200.034 161.219 199.716 161.881C199.397 162.543 198.956 163.278 198.39 164.086C197.887 164.793 197.394 165.496 196.912 166.198C196.429 166.899 196.067 167.561 195.826 168.183L202.441 166.596L203.504 171.027L188.98 174.51Z" fill="#FFBD5A"/>
</svg>
