<svg width="49" height="34" viewBox="0 0 49 34" fill="none" xmlns="http://www.w3.org/2000/svg">
<path d="M46.9175 3.24625C45.5884 0.882 44.1459 0.447125 41.209 0.28175C38.2751 0.0826875 30.8976 0 24.5061 0C18.1024 0 10.7218 0.0826877 7.791 0.278688C4.86019 0.447125 3.41469 0.878937 2.07331 3.24625C0.704375 5.60744 0 9.67444 0 16.8346C0 16.8407 0 16.8438 0 16.8438C0 16.8499 0 16.8529 0 16.8529V16.8591C0 23.9886 0.704375 28.0862 2.07331 30.4229C3.41469 32.7871 4.85713 33.2159 7.78794 33.4149C10.7218 33.5864 18.1024 33.6875 24.5061 33.6875C30.8976 33.6875 38.2751 33.5864 41.2121 33.418C44.149 33.2189 45.5914 32.7902 46.9206 30.4259C48.3018 28.0893 49 23.9916 49 16.8621C49 16.8621 49 16.8529 49 16.8468C49 16.8468 49 16.8407 49 16.8376C49 9.67444 48.3018 5.60744 46.9175 3.24625ZM18.375 26.0312V7.65625L33.6875 16.8438L18.375 26.0312Z" fill="black"/>
</svg>
